{
	"accessors" : 
	[
		{
			"bufferView" : 2,
			"byteOffset" : 0,
			"componentType" : 5126,
			"count" : 19992,
			"max" : 
			[
				0.2631747424602509,
				0.5542271137237549,
				0.7893137335777283,
				1
			],
			"min" : 
			[
				5.692175545846112e-05,
				0.3344578146934509,
				0.06575388461351395,
				1
			],
			"name" : "accessor_color_m0-PolyPaper21_-36538",
			"type" : "VEC4"
		},
		{
			"bufferView" : 2,
			"byteOffset" : 319872,
			"componentType" : 5126,
			"count" : 19800,
			"max" : 
			[
				0.2631747424602509,
				0.5542271137237549,
				0.06575388461351395,
				1
			],
			"min" : 
			[
				0.2631747424602509,
				0.5542271137237549,
				0.06575388461351395,
				1
			],
			"name" : "accessor_color_m1-PolyPaper9_-36544",
			"type" : "VEC4"
		},
		{
			"bufferView" : 2,
			"byteOffset" : 636672,
			"componentType" : 5126,
			"count" : 5976,
			"max" : 
			[
				0.2631747424602509,
				0.5542271137237549,
				0.06575388461351395,
				1
			],
			"min" : 
			[
				0.2631747424602509,
				0.5542271137237549,
				0.06575388461351395,
				1
			],
			"name" : "accessor_color_m2-PolyPaper9_-36550",
			"type" : "VEC4"
		},
		{
			"bufferView" : 0,
			"byteOffset" : 0,
			"componentType" : 5123,
			"count" : 30720,
			"max" : 
			[
				19991
			],
			"min" : 
			[
				0
			],
			"name" : "accessor_indices_0_m0-PolyPaper21_-36538",
			"type" : "SCALAR"
		},
		{
			"bufferView" : 0,
			"byteOffset" : 61440,
			"componentType" : 5123,
			"count" : 30540,
			"max" : 
			[
				19799
			],
			"min" : 
			[
				0
			],
			"name" : "accessor_indices_0_m1-PolyPaper9_-36544",
			"type" : "SCALAR"
		},
		{
			"bufferView" : 0,
			"byteOffset" : 122520,
			"componentType" : 5123,
			"count" : 9036,
			"max" : 
			[
				5975
			],
			"min" : 
			[
				0
			],
			"name" : "accessor_indices_0_m2-PolyPaper9_-36550",
			"type" : "SCALAR"
		},
		{
			"bufferView" : 1,
			"byteOffset" : 239904,
			"componentType" : 5126,
			"count" : 19992,
			"max" : 
			[
				0.998656,
				0.9979331,
				0.9995965
			],
			"min" : 
			[
				-0.9986558,
				-0.9979333,
				-0.9995965
			],
			"name" : "accessor_normal_m0-PolyPaper21_-36538",
			"type" : "VEC3"
		},
		{
			"bufferView" : 1,
			"byteOffset" : 717408,
			"componentType" : 5126,
			"count" : 19800,
			"max" : 
			[
				0.9998943,
				0.999988,
				0.9995655
			],
			"min" : 
			[
				-0.9998943,
				-0.9999881,
				-0.9995657999999999
			],
			"name" : "accessor_normal_m1-PolyPaper9_-36544",
			"type" : "VEC3"
		},
		{
			"bufferView" : 1,
			"byteOffset" : 1026720,
			"componentType" : 5126,
			"count" : 5976,
			"max" : 
			[
				0.998791,
				0.9997748,
				0.9988559
			],
			"min" : 
			[
				-0.998791,
				-0.9997749,
				-0.9988559
			],
			"name" : "accessor_normal_m2-PolyPaper9_-36550",
			"type" : "VEC3"
		},
		{
			"bufferView" : 1,
			"byteOffset" : 0,
			"componentType" : 5126,
			"count" : 19992,
			"max" : 
			[
				0.4047671,
				1.638504,
				-0.04706235
			],
			"min" : 
			[
				-0.2235088,
				1.046076,
				-0.6809016
			],
			"name" : "accessor_position_m0-PolyPaper21_-36538",
			"type" : "VEC3"
		},
		{
			"bufferView" : 1,
			"byteOffset" : 479808,
			"componentType" : 5126,
			"count" : 19800,
			"max" : 
			[
				0.373027,
				1.6542,
				-0.2386182
			],
			"min" : 
			[
				-0.2862179,
				1.01156,
				-0.7340335
			],
			"name" : "accessor_position_m1-PolyPaper9_-36544",
			"type" : "VEC3"
		},
		{
			"bufferView" : 1,
			"byteOffset" : 955008,
			"componentType" : 5126,
			"count" : 5976,
			"max" : 
			[
				0.1615127,
				1.681085,
				-0.2293086
			],
			"min" : 
			[
				-0.162766,
				1.009062,
				-0.6533601999999999
			],
			"name" : "accessor_position_m2-PolyPaper9_-36550",
			"type" : "VEC3"
		}
	],
	"asset" : 
	{
		"copyright" : "Unknown",
		"generator" : "glTF 1-to-2 Upgrader for Google Blocks",
		"version" : "2.0"
	},
	"bufferViews" : 
	[
		{
			"buffer" : 0,
			"byteLength" : 140592,
			"byteOffset" : 0,
			"name" : "ushortBufferView",
			"target" : 34963
		},
		{
			"buffer" : 0,
			"byteLength" : 1098432,
			"byteOffset" : 140592,
			"byteStride" : 12,
			"name" : "vec3BufferView",
			"target" : 34962
		},
		{
			"buffer" : 0,
			"byteLength" : 732288,
			"byteOffset" : 1239024,
			"byteStride" : 16,
			"name" : "vec4BufferView",
			"target" : 34962
		}
	],
	"buffers" : 
	[
		{
			"byteLength" : 1971312,
			"name" : "virus.bin",
			"uri" : "~/workspace/graphics/src/components/objects/Virus/virus.bin"
		}
	],
	"materials" : 
	[
		{
			"alphaMode" : "OPAQUE",
			"doubleSided" : false,
			"name" : "BlocksPaper",
			"pbrMetallicRoughness" : 
			{
				"baseColorFactor" : 
				[
					1,
					1,
					1,
					1
				],
				"metallicFactor" : 0,
				"roughnessFactor" : 0.6
			}
		},
		{
			"alphaMode" : "BLEND",
			"doubleSided" : false,
			"name" : "BlocksGlass",
			"pbrMetallicRoughness" : 
			{
				"baseColorFactor" : 
				[
					0.2,
					0.2,
					1,
					0.3
				],
				"metallicFactor" : 1,
				"roughnessFactor" : 0.4
			}
		},
		{
			"alphaMode" : "OPAQUE",
			"doubleSided" : true,
			"name" : "BlocksGem",
			"pbrMetallicRoughness" : 
			{
				"baseColorFactor" : 
				[
					1,
					0.4,
					1,
					1
				],
				"metallicFactor" : 0,
				"roughnessFactor" : 0.1
			}
		}
	],
	"meshes" : 
	[
		{
			"name" : "mesh_m0-PolyPaper21_-36538",
			"primitives" : 
			[
				{
					"attributes" : 
					{
						"COLOR_0" : 0,
						"NORMAL" : 6,
						"POSITION" : 9
					},
					"indices" : 3,
					"material" : 0,
					"mode" : 4
				}
			]
		},
		{
			"name" : "mesh_m1-PolyPaper9_-36544",
			"primitives" : 
			[
				{
					"attributes" : 
					{
						"COLOR_0" : 1,
						"NORMAL" : 7,
						"POSITION" : 10
					},
					"indices" : 4,
					"material" : 0,
					"mode" : 4
				}
			]
		},
		{
			"name" : "mesh_m2-PolyPaper9_-36550",
			"primitives" : 
			[
				{
					"attributes" : 
					{
						"COLOR_0" : 2,
						"NORMAL" : 8,
						"POSITION" : 11
					},
					"indices" : 5,
					"material" : 0,
					"mode" : 4
				}
			]
		}
	],
	"nodes" : 
	[
		{
			"matrix" : 
			[
				1,
				0,
				0,
				0,
				0,
				1,
				0,
				0,
				0,
				0,
				1,
				0,
				0,
				0,
				0,
				1
			],
			"mesh" : 2,
			"name" : "node_MeshObject-1783400448-PolyPaper9"
		},
		{
			"matrix" : 
			[
				1,
				0,
				0,
				0,
				0,
				1,
				0,
				0,
				0,
				0,
				1,
				0,
				0,
				0,
				0,
				1
			],
			"mesh" : 1,
			"name" : "node_MeshObject1939487744-PolyPaper9"
		},
		{
			"matrix" : 
			[
				1,
				0,
				0,
				0,
				0,
				1,
				0,
				0,
				0,
				0,
				1,
				0,
				0,
				0,
				0,
				1
			],
			"mesh" : 0,
			"name" : "node_MeshObject205754368-PolyPaper21"
		}
	],
	"scene" : 0,
	"scenes" : 
	[
		{
			"extras" : {},
			"name" : "defaultScene",
			"nodes" : 
			[
				2,
				1,
				0
			]
		}
	]
}